<?xml version="1.0" encoding="UTF-8" standalone="no"?>
<svg width="150px" height="102px" viewBox="0 0 150 102" version="1.1" xmlns="http://www.w3.org/2000/svg" xmlns:xlink="http://www.w3.org/1999/xlink">
    <!-- Generator: Sketch 3.8.3 (29802) - http://www.bohemiancoding.com/sketch -->
    <title>Add Nested Condition</title>
    <desc>Created with Sketch.</desc>
    <defs></defs>
    <g id="Page-1" stroke="none" stroke-width="1" fill="none" fill-rule="evenodd">
        <g id="Add-Nested-Condition" fill="#FF7B7B">
            <rect id="Rectangle-1" x="27" y="0" width="12" height="63" rx="2"></rect>
            <rect id="Rectangle-1" transform="translate(32.000000, 30.500000) rotate(90.000000) translate(-32.000000, -30.500000) " x="26" y="-1" width="12" height="63" rx="2"></rect>
            <path d="M126.741294,67.8092723 C128.486234,69.322954 128.486234,74.1162799 126.741294,75.6299631 C124.996354,77.1436463 122.357928,76.1345187 121.285732,77.1436452 C120.213535,78.1527716 119.677444,79.8346238 119.677444,82.1892521 L119.677444,89.0638916 C119.677444,92.007177 119.120331,94.3302353 118.006087,96.0331361 C116.891843,97.736037 115.125898,100.059107 112.708199,100.794929 C110.2905,101.53075 105.11351,101.898653 102.900801,100.794928 C100.688092,99.6912021 100.136229,94.3933138 102.711591,93.037307 C105.286953,91.6813002 106.92677,92.5853092 108.041013,91.6813002 C109.155257,90.7772911 109.712371,89.2951588 109.712371,87.234859 L109.712371,79.2880281 C109.712371,77.2697753 110.195903,75.6615041 111.162983,74.4631665 C112.130062,73.2648289 113.58066,72.3503217 115.514819,71.7196177 C113.58066,71.0889137 112.130062,70.163895 111.162983,68.9445339 C110.195903,67.7251728 109.712371,66.1274132 109.712371,64.1512073 L109.712371,56.1413063 C109.712371,54.1230534 109.155257,52.6619444 108.041013,51.7579353 C106.92677,50.8539262 104.73509,52.1941701 102.711591,50.4019284 C100.688092,48.6096868 101.760284,44.8517608 103.972993,43.7164993 C106.185702,42.5812377 110.290501,42.9596544 112.7082,43.7164992 C115.125898,44.4733441 116.891843,45.7031984 118.006087,47.4060993 C119.120331,49.1090002 119.677444,51.4110353 119.677444,54.3122738 L119.677444,61.2499833 C119.677444,63.6046117 120.213535,65.2864638 121.285732,66.2955903 C122.357928,67.3047167 124.996354,66.2955907 126.741294,67.8092723 Z" id="{-}"></path>
            <path d="M147.741294,67.8092723 C149.486234,69.322954 149.486234,74.1162799 147.741294,75.6299631 C145.996354,77.1436463 143.357928,76.1345187 142.285732,77.1436452 C141.213535,78.1527716 140.677444,79.8346238 140.677444,82.1892521 L140.677444,89.0638916 C140.677444,92.007177 140.120331,94.3302353 139.006087,96.0331361 C137.891843,97.736037 136.125898,100.059107 133.708199,100.794929 C131.2905,101.53075 126.11351,101.898653 123.900801,100.794928 C121.688092,99.6912021 121.136229,94.3933138 123.711591,93.037307 C126.286953,91.6813002 127.92677,92.5853092 129.041013,91.6813002 C130.155257,90.7772911 130.712371,89.2951588 130.712371,87.234859 L130.712371,79.2880281 C130.712371,77.2697753 131.195903,75.6615041 132.162983,74.4631665 C133.130062,73.2648289 134.58066,72.3503217 136.514819,71.7196177 C134.58066,71.0889137 133.130062,70.163895 132.162983,68.9445339 C131.195903,67.7251728 130.712371,66.1274132 130.712371,64.1512073 L130.712371,56.1413063 C130.712371,54.1230534 130.155257,52.6619444 129.041013,51.7579353 C127.92677,50.8539262 125.73509,52.1941701 123.711591,50.4019284 C121.688092,48.6096868 122.760284,44.8517608 124.972993,43.7164993 C127.185702,42.5812377 131.290501,42.9596544 133.7082,43.7164992 C136.125898,44.4733441 137.891843,45.7031984 139.006087,47.4060993 C140.120331,49.1090002 140.677444,51.4110353 140.677444,54.3122738 L140.677444,61.2499833 C140.677444,63.6046117 141.213535,65.2864638 142.285732,66.2955903 C143.357928,67.3047167 145.996354,66.2955907 147.741294,67.8092723 Z" id="{-}"></path>
            <path d="M70.741294,67.8092723 C72.4862343,69.322954 72.4862343,74.1162799 70.741294,75.6299631 C68.9963538,77.1436463 66.3579284,76.1345187 65.2857315,77.1436452 C64.2135347,78.1527716 63.6774443,79.8346238 63.6774443,82.1892521 L63.6774443,89.0638916 C63.6774443,92.007177 63.1203308,94.3302353 62.006087,96.0331361 C60.8918433,97.736037 59.1258979,100.059107 56.7081991,100.794929 C54.2905004,101.53075 49.1135101,101.898653 46.9008013,100.794928 C44.6880924,99.6912021 44.1362291,94.3933138 46.711591,93.037307 C49.2869529,91.6813002 50.9267696,92.5853092 52.0410133,91.6813002 C53.1552571,90.7772911 53.7123706,89.2951588 53.7123706,87.234859 L53.7123706,79.2880281 C53.7123706,77.2697753 54.1959031,75.6615041 55.1629826,74.4631665 C56.1300621,73.2648289 57.5806596,72.3503217 59.5148186,71.7196177 C57.5806596,71.0889137 56.1300621,70.163895 55.1629826,68.9445339 C54.1959031,67.7251728 53.7123706,66.1274132 53.7123706,64.1512073 L53.7123706,56.1413063 C53.7123706,54.1230534 53.1552571,52.6619444 52.0410133,51.7579353 C50.9267696,50.8539262 48.7350896,52.1941701 46.711591,50.4019284 C44.6880924,48.6096868 45.7602839,44.8517608 47.9729928,43.7164993 C50.1857016,42.5812377 54.290501,42.9596544 56.7081997,43.7164992 C59.1258985,44.4733441 60.8918433,45.7031984 62.006087,47.4060993 C63.1203308,49.1090002 63.6774443,51.4110353 63.6774443,54.3122738 L63.6774443,61.2499833 C63.6774443,63.6046117 64.2135347,65.2864638 65.2857315,66.2955903 C66.3579284,67.3047167 68.9963538,66.2955907 70.741294,67.8092723 Z" id="Path" transform="translate(58.525000, 72.245762) scale(-1, 1) translate(-58.525000, -72.245762) "></path>
            <path d="M90.741294,67.8092723 C92.4862343,69.322954 92.4862343,74.1162799 90.741294,75.6299631 C88.9963538,77.1436463 86.3579284,76.1345187 85.2857315,77.1436452 C84.2135347,78.1527716 83.6774443,79.8346238 83.6774443,82.1892521 L83.6774443,89.0638916 C83.6774443,92.007177 83.1203308,94.3302353 82.006087,96.0331361 C80.8918433,97.736037 79.1258979,100.059107 76.7081991,100.794929 C74.2905004,101.53075 69.1135101,101.898653 66.9008013,100.794928 C64.6880924,99.6912021 64.1362291,94.3933138 66.711591,93.037307 C69.2869529,91.6813002 70.9267696,92.5853092 72.0410133,91.6813002 C73.1552571,90.7772911 73.7123706,89.2951588 73.7123706,87.234859 L73.7123706,79.2880281 C73.7123706,77.2697753 74.1959031,75.6615041 75.1629826,74.4631665 C76.1300621,73.2648289 77.5806596,72.3503217 79.5148186,71.7196177 C77.5806596,71.0889137 76.1300621,70.163895 75.1629826,68.9445339 C74.1959031,67.7251728 73.7123706,66.1274132 73.7123706,64.1512073 L73.7123706,56.1413063 C73.7123706,54.1230534 73.1552571,52.6619444 72.0410133,51.7579353 C70.9267696,50.8539262 68.7350896,52.1941701 66.711591,50.4019284 C64.6880924,48.6096868 65.7602839,44.8517608 67.9729928,43.7164993 C70.1857016,42.5812377 74.290501,42.9596544 76.7081997,43.7164992 C79.1258985,44.4733441 80.8918433,45.7031984 82.006087,47.4060993 C83.1203308,49.1090002 83.6774443,51.4110353 83.6774443,54.3122738 L83.6774443,61.2499833 C83.6774443,63.6046117 84.2135347,65.2864638 85.2857315,66.2955903 C86.3579284,67.3047167 88.9963538,66.2955907 90.741294,67.8092723 Z" id="Path" transform="translate(78.525000, 72.245762) scale(-1, 1) translate(-78.525000, -72.245762) "></path>
        </g>
    </g>
</svg>