<?xml version="1.0" encoding="UTF-8" standalone="no"?>
<svg width="109px" height="96px" viewBox="0 0 109 96" version="1.1" xmlns="http://www.w3.org/2000/svg" xmlns:xlink="http://www.w3.org/1999/xlink">
    <!-- Generator: Sketch 3.8.3 (29802) - http://www.bohemiancoding.com/sketch -->
    <title>Add Single Condition</title>
    <desc>Created with Sketch.</desc>
    <defs></defs>
    <g id="Page-1" stroke="none" stroke-width="1" fill="none" fill-rule="evenodd">
        <g id="Add-Single-Condition" fill="#5E9CD0">
            <rect id="Rectangle-1" x="26.5" y="0" width="12" height="63" rx="2"></rect>
            <rect id="Rectangle-1" transform="translate(31.500000, 30.500000) rotate(90.000000) translate(-31.500000, -30.500000) " x="25.5" y="-1" width="12" height="63" rx="2"></rect>
            <path d="M106.752963,65.2488361 C108.498188,66.6166246 108.498188,70.9479558 106.752963,72.3157458 C105.007737,73.6835358 102.368881,72.7716709 101.296509,73.6835348 C100.224136,74.5953986 99.6879585,76.115149 99.6879585,78.2428314 L99.6879585,84.454873 C99.6879585,87.114476 99.1307539,89.2136311 98.016328,90.7524014 C96.9019021,92.2911717 95.1356681,94.3903378 92.7175742,95.0552386 C90.2994803,95.7201393 85.1216438,96.0525829 82.9085733,95.0552376 C80.6955028,94.0578923 80.1435493,89.27063 82.7193321,88.0453191 C85.295115,86.8200081 86.9351997,87.6368861 88.0496256,86.8200081 C89.1640514,86.00313 89.721256,84.66385 89.721256,82.802128 L89.721256,75.6212358 C89.721256,73.7975081 90.2048676,72.3442468 91.1721051,71.2614085 C92.1393427,70.1785701 93.5901773,69.3522059 95.5246524,68.7822909 C93.5901773,68.212376 92.1393427,67.3765133 91.1721051,66.2746778 C90.2048676,65.1728423 89.721256,63.7290795 89.721256,61.943346 L89.721256,54.7054627 C89.721256,52.8817349 89.1640514,51.5614518 88.0496256,50.7445738 C86.9351997,49.9276957 84.7431615,51.138763 82.7193321,49.5192628 C80.6955028,47.8997626 81.7678695,44.5040366 83.9809401,43.4781948 C86.1940106,42.4523531 90.2994809,42.7942969 92.7175748,43.4781948 C95.1356687,44.1620927 96.9019021,45.2734102 98.016328,46.8121804 C99.1307539,48.3509507 99.6879585,50.431109 99.6879585,53.0527177 L99.6879585,59.3217505 C99.6879585,61.4494329 100.224136,62.9691832 101.296509,63.8810471 C102.368881,64.792911 105.007737,63.8810475 106.752963,65.2488361 Z" id="{-}"></path>
            <path d="M46.8336581,65.2488361 C45.0884326,66.6166246 45.0884326,70.9479558 46.8336581,72.3157458 C48.5788836,73.6835358 51.2177402,72.7716709 52.2901123,73.6835348 C53.3624844,74.5953986 53.8986624,76.115149 53.8986624,78.2428314 L53.8986624,84.454873 C53.8986624,87.114476 54.455867,89.2136311 55.5702929,90.7524014 C56.6847188,92.2911717 58.4509528,94.3903378 60.8690467,95.0552386 C63.2871406,95.7201393 68.464977,96.0525829 70.6780475,95.0552376 C72.891118,94.0578923 73.4430716,89.27063 70.8672887,88.0453191 C68.2915059,86.8200081 66.6514212,87.6368861 65.5369953,86.8200081 C64.4225694,86.00313 63.8653649,84.66385 63.8653649,82.802128 L63.8653649,75.6212358 C63.8653649,73.7975081 63.3817533,72.3442468 62.4145158,71.2614085 C61.4472782,70.1785701 59.9964436,69.3522059 58.0619685,68.7822909 C59.9964436,68.212376 61.4472782,67.3765133 62.4145158,66.2746778 C63.3817533,65.1728423 63.8653649,63.7290795 63.8653649,61.943346 L63.8653649,54.7054627 C63.8653649,52.8817349 64.4225694,51.5614518 65.5369953,50.7445738 C66.6514212,49.9276957 68.8434594,51.138763 70.8672887,49.5192628 C72.8911181,47.8997626 71.8187513,44.5040366 69.6056808,43.4781948 C67.3926103,42.4523531 63.28714,42.7942969 60.8690461,43.4781948 C58.4509522,44.1620927 56.6847188,45.2734102 55.5702929,46.8121804 C54.455867,48.3509507 53.8986624,50.431109 53.8986624,53.0527177 L53.8986624,59.3217505 C53.8986624,61.4494329 53.3624844,62.9691832 52.2901123,63.8810471 C51.2177402,64.792911 48.5788836,63.8810475 46.8336581,65.2488361" id="Path"></path>
        </g>
    </g>
</svg>