<?xml version="1.0" encoding="UTF-8" standalone="no"?>
<svg width="130px" height="108px" viewBox="0 0 130 108" version="1.1" xmlns="http://www.w3.org/2000/svg" xmlns:xlink="http://www.w3.org/1999/xlink">
    <!-- Generator: Sketch 40.1 (33804) - http://www.bohemiancoding.com/sketch -->
    <title>add-a-segment</title>
    <desc>Created with Sketch.</desc>
    <defs></defs>
    <g id="Page-1" stroke="none" stroke-width="1" fill="none" fill-rule="evenodd">
        <g id="add-a-segment">
            <g id="segment-icon" transform="translate(42.500000, 47.000000)" stroke-width="1" stroke="#48CAB9">
                <g id="Group" transform="translate(0.000000, 1.000000)">
                    <path d="M61.0124,18.0141891 C64.4103424,19.2625281 68.1871744,21.0911317 70.1106483,23.5 C74.1031329,28.5 71.8217131,35 66.1181637,36.5 L53,36.5" id="Path-3" stroke-width="7"></path>
                    <path d="M10.6224688,18.2700354 C7.41198604,19.5074574 4.00015299,21.2507789 2.20415688,23.5 C-1.78832771,28.5 0.493092056,35 6.19664148,36.5 L19.3148052,36.5" id="Path-3" stroke-width="7"></path>
                    <path d="M32.6140635,12.3436991 C32.6263145,12.1226129 32.6325228,11.8998823 32.6325228,11.6756757 C32.6325228,5.22737806 27.4972696,0 21.1626138,0 C14.8279581,0 9.69270491,5.22737806 9.69270491,11.6756757 C9.69270491,18.1239733 14.8279581,23.3513514 21.1626138,23.3513514 L21.1626138,23.3513514 C22.4933567,23.3513514 23.7711689,23.1206627 24.9595623,22.6964283" id="Oval" stroke-width="7"></path>
                    <path d="M48.2427863,23.2394242 C48.7639328,23.3132099 49.2962838,23.3513514 49.8373862,23.3513514 L49.8373862,23.3513514 C56.1720419,23.3513514 61.3072951,18.1239733 61.3072951,11.6756757 C61.3072951,5.22737806 56.1720419,0 49.8373862,0 C43.5027304,0 38.3674772,5.22737806 38.3674772,11.6756757 C38.3674772,12.2656984 38.4104714,12.8454992 38.4934445,13.4120087" id="Oval" stroke-width="7"></path>
                    <ellipse id="Oval" stroke-width="7" cx="36.4558257" cy="24.3243243" rx="11.4699089" ry="11.6756757"></ellipse>
                    <path d="M26.9397167,30.8446442 C25.7060843,28.9826998 24.9859168,26.7391229 24.9859168,24.3243243 C24.9859168,17.8760267 30.12117,12.6486486 36.4558257,12.6486486 C42.7904815,12.6486486 47.9257347,17.8760267 47.9257347,24.3243243 C47.9257347,26.654272 47.2552883,28.8248193 46.1000656,30.6469654 C49.0931581,31.9256047 52.010141,33.5626729 53.5570907,35.5 C57.5495753,40.5 55.2681556,47 49.5646061,48.5 L36.8806238,48.5 L24.1966415,48.5 C18.4930921,47 16.2116723,40.5 20.2041569,35.5 C21.6725032,33.6611121 24.2577369,32.092745 26.9397167,30.8446442 Z" id="Combined-Shape" stroke-width="7"></path>
                </g>
            </g>
            <rect id="Rectangle-1" fill="#48CAB9" x="26.5" y="0" width="12" height="63" rx="2"></rect>
            <rect id="Rectangle-1" fill="#48CAB9" transform="translate(32.000000, 31.000000) rotate(90.000000) translate(-32.000000, -31.000000) " x="26" y="-0.5" width="12" height="63" rx="2"></rect>
        </g>
    </g>
</svg>