<?xml version="1.0" encoding="UTF-8" standalone="no"?>
<svg width="55px" height="55px" viewBox="0 0 55 55" version="1.1" xmlns="http://www.w3.org/2000/svg" xmlns:xlink="http://www.w3.org/1999/xlink">
    <!-- Generator: sketchtool 3.8.3 (29802) - http://www.bohemiancoding.com/sketch -->
    <title>346EB939-33A9-4DD7-8B02-FCC6330456E8</title>
    <desc>Created with sketchtool.</desc>
    <defs>
        <path d="M32.5154352,21.6844939 C32.2851205,21.6278153 32.0443141,21.5977528 31.7964748,21.5977528 L22.9887161,21.5977528 C22.7410851,21.5977528 22.5005261,21.6277344 22.2704663,21.6842594 C22.0853099,21.628004 21.8888191,21.5977528 21.6852545,21.5977528 L19.0082815,21.5977528 C17.9027201,21.5977528 17,22.4964402 17,23.6050271 L17,37.7004134 C17,38.8096132 17.8991383,39.7076877 19.0082815,39.7076877 L19.9944767,39.7076877 L19.9944767,45.5954072 C19.9944767,47.248438 21.3350433,48.5868305 22.9887161,48.5868305 L31.7964748,48.5868305 C33.4515505,48.5868305 34.7907143,47.2475247 34.7907143,45.5954072 L34.7907143,39.7076877 L35.7769094,39.7076877 C36.8824709,39.7076877 37.7851909,38.8090004 37.7851909,37.7004134 L37.7851909,23.6050271 C37.7851909,22.4958273 36.8860526,21.5977528 35.7769094,21.5977528 L33.0999364,21.5977528 C32.8968082,21.5977528 32.7005275,21.6280906 32.5154352,21.6844939 Z M27.3925955,20.7692673 C31.4784636,20.7692673 34.7907143,17.4630542 34.7907143,13.3846336 C34.7907143,9.30621309 31.4784636,6 27.3925955,6 C23.3067273,6 19.9944767,9.30621309 19.9944767,13.3846336 C19.9944767,17.4630542 23.3067273,20.7692673 27.3925955,20.7692673 Z" id="path-1"></path>
        <mask id="mask-2" maskContentUnits="userSpaceOnUse" maskUnits="objectBoundingBox" x="0" y="0" width="20.7851909" height="42.5868305" fill="white">
            <use xlink:href="#path-1"></use>
        </mask>
    </defs>
    <g id="Symbols" stroke="none" stroke-width="1" fill="none" fill-rule="evenodd">
        <g id="icons/Entity-(Selected)">
            <g id="Group">
                <rect id="Rectangle-2" fill="#464646" x="0" y="0" width="55" height="55"></rect>
                <use id="Combined-Shape" stroke="#FFFFFF" mask="url(#mask-2)" stroke-width="3" xlink:href="#path-1"></use>
            </g>
        </g>
    </g>
</svg>