<?xml version="1.0" encoding="UTF-8" standalone="no"?>
<svg width="105px" height="59px" viewBox="0 0 105 59" version="1.1" xmlns="http://www.w3.org/2000/svg" xmlns:xlink="http://www.w3.org/1999/xlink">
    <!-- Generator: Sketch 3.8.3 (29802) - http://www.bohemiancoding.com/sketch -->
    <title>{{}}</title>
    <desc>Created with Sketch.</desc>
    <defs></defs>
    <g id="Page-1" stroke="none" stroke-width="1" fill="none" fill-rule="evenodd">
        <g id="{{}}" fill="#FF7B7B">
            <path d="M81.741294,24.8092723 C83.4862343,26.322954 83.4862343,31.1162799 81.741294,32.6299631 C79.9963538,34.1436463 77.3579284,33.1345187 76.2857315,34.1436452 C75.2135347,35.1527716 74.6774443,36.8346238 74.6774443,39.1892521 L74.6774443,46.0638916 C74.6774443,49.007177 74.1203308,51.3302353 73.006087,53.0331361 C71.8918433,54.736037 70.1258979,57.0591074 67.7081991,57.7949288 C65.2905004,58.5307502 60.1135101,58.8986533 57.9008013,57.7949277 C55.6880924,56.6912021 55.1362291,51.3933138 57.711591,50.037307 C60.2869529,48.6813002 61.9267696,49.5853092 63.0410133,48.6813002 C64.1552571,47.7772911 64.7123706,46.2951588 64.7123706,44.234859 L64.7123706,36.2880281 C64.7123706,34.2697753 65.1959031,32.6615041 66.1629826,31.4631665 C67.1300621,30.2648289 68.5806596,29.3503217 70.5148186,28.7196177 C68.5806596,28.0889137 67.1300621,27.163895 66.1629826,25.9445339 C65.1959031,24.7251728 64.7123706,23.1274132 64.7123706,21.1512073 L64.7123706,13.1413063 C64.7123706,11.1230534 64.1552571,9.66194438 63.0410133,8.75793528 C61.9267696,7.85392619 59.7350896,9.19417008 57.711591,7.40192842 C55.6880924,5.60968676 56.7602839,1.85176082 58.9729928,0.716499262 C61.1857016,-0.418762299 65.290501,-0.0403455918 67.7081997,0.716499233 C70.1258985,1.47334406 71.8918433,2.70319845 73.006087,4.4060993 C74.1203308,6.10900016 74.6774443,8.4110353 74.6774443,11.3122738 L74.6774443,18.2499833 C74.6774443,20.6046117 75.2135347,22.2864638 76.2857315,23.2955903 C77.3579284,24.3047167 79.9963538,23.2955907 81.741294,24.8092723 Z" id="{-}"></path>
            <path d="M102.741294,24.8092723 C104.486234,26.322954 104.486234,31.1162799 102.741294,32.6299631 C100.996354,34.1436463 98.3579284,33.1345187 97.2857315,34.1436452 C96.2135347,35.1527716 95.6774443,36.8346238 95.6774443,39.1892521 L95.6774443,46.0638916 C95.6774443,49.007177 95.1203308,51.3302353 94.006087,53.0331361 C92.8918433,54.736037 91.1258979,57.0591074 88.7081991,57.7949288 C86.2905004,58.5307502 81.1135101,58.8986533 78.9008013,57.7949277 C76.6880924,56.6912021 76.1362291,51.3933138 78.711591,50.037307 C81.2869529,48.6813002 82.9267696,49.5853092 84.0410133,48.6813002 C85.1552571,47.7772911 85.7123706,46.2951588 85.7123706,44.234859 L85.7123706,36.2880281 C85.7123706,34.2697753 86.1959031,32.6615041 87.1629826,31.4631665 C88.1300621,30.2648289 89.5806596,29.3503217 91.5148186,28.7196177 C89.5806596,28.0889137 88.1300621,27.163895 87.1629826,25.9445339 C86.1959031,24.7251728 85.7123706,23.1274132 85.7123706,21.1512073 L85.7123706,13.1413063 C85.7123706,11.1230534 85.1552571,9.66194438 84.0410133,8.75793528 C82.9267696,7.85392619 80.7350896,9.19417008 78.711591,7.40192842 C76.6880924,5.60968676 77.7602839,1.85176082 79.9729928,0.716499262 C82.1857016,-0.418762299 86.290501,-0.0403455918 88.7081997,0.716499233 C91.1258985,1.47334406 92.8918433,2.70319845 94.006087,4.4060993 C95.1203308,6.10900016 95.6774443,8.4110353 95.6774443,11.3122738 L95.6774443,18.2499833 C95.6774443,20.6046117 96.2135347,22.2864638 97.2857315,23.2955903 C98.3579284,24.3047167 100.996354,23.2955907 102.741294,24.8092723 Z" id="{-}"></path>
            <path d="M25.741294,24.8092723 C27.4862343,26.322954 27.4862343,31.1162799 25.741294,32.6299631 C23.9963538,34.1436463 21.3579284,33.1345187 20.2857315,34.1436452 C19.2135347,35.1527716 18.6774443,36.8346238 18.6774443,39.1892521 L18.6774443,46.0638916 C18.6774443,49.007177 18.1203308,51.3302353 17.006087,53.0331361 C15.8918433,54.736037 14.1258979,57.0591074 11.7081991,57.7949288 C9.2905004,58.5307502 4.11351011,58.8986533 1.90080127,57.7949277 C-0.311907566,56.6912021 -0.863770884,51.3933138 1.71159101,50.037307 C4.28695291,48.6813002 5.92676957,49.5853092 7.04101334,48.6813002 C8.1552571,47.7772911 8.71237063,46.2951588 8.71237063,44.234859 L8.71237063,36.2880281 C8.71237063,34.2697753 9.19590313,32.6615041 10.1629826,31.4631665 C11.1300621,30.2648289 12.5806596,29.3503217 14.5148186,28.7196177 C12.5806596,28.0889137 11.1300621,27.163895 10.1629826,25.9445339 C9.19590313,24.7251728 8.71237063,23.1274132 8.71237063,21.1512073 L8.71237063,13.1413063 C8.71237063,11.1230534 8.1552571,9.66194438 7.04101334,8.75793528 C5.92676957,7.85392619 3.73508962,9.19417008 1.71159101,7.40192842 C-0.311907601,5.60968676 0.760283888,1.85176082 2.97299277,0.716499262 C5.18570165,-0.418762299 9.29050101,-0.0403455918 11.7081997,0.716499233 C14.1258985,1.47334406 15.8918433,2.70319845 17.006087,4.4060993 C18.1203308,6.10900016 18.6774443,8.4110353 18.6774443,11.3122738 L18.6774443,18.2499833 C18.6774443,20.6046117 19.2135347,22.2864638 20.2857315,23.2955903 C21.3579284,24.3047167 23.9963538,23.2955907 25.741294,24.8092723 Z" id="Path" transform="translate(13.525000, 29.245762) scale(-1, 1) translate(-13.525000, -29.245762) "></path>
            <path d="M45.741294,24.8092723 C47.4862343,26.322954 47.4862343,31.1162799 45.741294,32.6299631 C43.9963538,34.1436463 41.3579284,33.1345187 40.2857315,34.1436452 C39.2135347,35.1527716 38.6774443,36.8346238 38.6774443,39.1892521 L38.6774443,46.0638916 C38.6774443,49.007177 38.1203308,51.3302353 37.006087,53.0331361 C35.8918433,54.736037 34.1258979,57.0591074 31.7081991,57.7949288 C29.2905004,58.5307502 24.1135101,58.8986533 21.9008013,57.7949277 C19.6880924,56.6912021 19.1362291,51.3933138 21.711591,50.037307 C24.2869529,48.6813002 25.9267696,49.5853092 27.0410133,48.6813002 C28.1552571,47.7772911 28.7123706,46.2951588 28.7123706,44.234859 L28.7123706,36.2880281 C28.7123706,34.2697753 29.1959031,32.6615041 30.1629826,31.4631665 C31.1300621,30.2648289 32.5806596,29.3503217 34.5148186,28.7196177 C32.5806596,28.0889137 31.1300621,27.163895 30.1629826,25.9445339 C29.1959031,24.7251728 28.7123706,23.1274132 28.7123706,21.1512073 L28.7123706,13.1413063 C28.7123706,11.1230534 28.1552571,9.66194438 27.0410133,8.75793528 C25.9267696,7.85392619 23.7350896,9.19417008 21.711591,7.40192842 C19.6880924,5.60968676 20.7602839,1.85176082 22.9729928,0.716499262 C25.1857016,-0.418762299 29.290501,-0.0403455918 31.7081997,0.716499233 C34.1258985,1.47334406 35.8918433,2.70319845 37.006087,4.4060993 C38.1203308,6.10900016 38.6774443,8.4110353 38.6774443,11.3122738 L38.6774443,18.2499833 C38.6774443,20.6046117 39.2135347,22.2864638 40.2857315,23.2955903 C41.3579284,24.3047167 43.9963538,23.2955907 45.741294,24.8092723 Z" id="Path" transform="translate(33.525000, 29.245762) scale(-1, 1) translate(-33.525000, -29.245762) "></path>
        </g>
    </g>
</svg>