<?xml version="1.0" encoding="UTF-8" standalone="no"?>
<svg width="64px" height="54px" viewBox="0 0 64 54" version="1.1" xmlns="http://www.w3.org/2000/svg" xmlns:xlink="http://www.w3.org/1999/xlink">
    <!-- Generator: Sketch 3.8.3 (29802) - http://www.bohemiancoding.com/sketch -->
    <title>{ }</title>
    <desc>Created with Sketch.</desc>
    <defs></defs>
    <g id="Symbols" stroke="none" stroke-width="1" fill="none" fill-rule="evenodd">
        <g id="{-}" fill="#5E9CD0">
            <path d="M61.7529628,23.2488361 C63.4981882,24.6166246 63.4981882,28.9479558 61.7529628,30.3157458 C60.0077373,31.6835358 57.3688807,30.7716709 56.2965086,31.6835348 C55.2241365,32.5953986 54.6879585,34.115149 54.6879585,36.2428314 L54.6879585,42.454873 C54.6879585,45.114476 54.1307539,47.2136311 53.016328,48.7524014 C51.9019021,50.2911717 50.1356681,52.3903378 47.7175742,53.0552386 C45.2994803,53.7201393 40.1216438,54.0525829 37.9085733,53.0552376 C35.6955028,52.0578923 35.1435493,47.27063 37.7193321,46.0453191 C40.295115,44.8200081 41.9351997,45.6368861 43.0496256,44.8200081 C44.1640514,44.00313 44.721256,42.66385 44.721256,40.802128 L44.721256,33.6212358 C44.721256,31.7975081 45.2048676,30.3442468 46.1721051,29.2614085 C47.1393427,28.1785701 48.5901773,27.3522059 50.5246524,26.7822909 C48.5901773,26.212376 47.1393427,25.3765133 46.1721051,24.2746778 C45.2048676,23.1728423 44.721256,21.7290795 44.721256,19.943346 L44.721256,12.7054627 C44.721256,10.8817349 44.1640514,9.56145182 43.0496256,8.74457376 C41.9351997,7.92769571 39.7431615,9.13876297 37.7193321,7.5192628 C35.6955028,5.89976263 36.7678695,2.50403657 38.9809401,1.47819484 C41.1940106,0.452353104 45.2994809,0.794296903 47.7175748,1.47819481 C50.1356687,2.16209272 51.9019021,3.27341015 53.016328,4.81218045 C54.1307539,6.35095074 54.6879585,8.43110902 54.6879585,11.0527177 L54.6879585,17.3217505 C54.6879585,19.4494329 55.2241365,20.9691832 56.2965086,21.8810471 C57.3688807,22.792911 60.0077373,21.8810475 61.7529628,23.2488361 Z"></path>
            <path d="M1.83365812,23.2488361 C0.0884326432,24.6166246 0.0884326432,28.9479558 1.83365812,30.3157458 C3.57888359,31.6835358 6.21774023,30.7716709 7.29011231,31.6835348 C8.36248439,32.5953986 8.89866239,34.115149 8.89866239,36.2428314 L8.89866239,42.454873 C8.89866239,45.114476 9.45586698,47.2136311 10.5702929,48.7524014 C11.6847188,50.2911717 13.4509528,52.3903378 15.8690467,53.0552386 C18.2871406,53.7201393 23.464977,54.0525829 25.6780475,53.0552376 C27.891118,52.0578923 28.4430716,47.27063 25.8672887,46.0453191 C23.2915059,44.8200081 21.6514212,45.6368861 20.5369953,44.8200081 C19.4225694,44.00313 18.8653649,42.66385 18.8653649,40.802128 L18.8653649,33.6212358 C18.8653649,31.7975081 18.3817533,30.3442468 17.4145158,29.2614085 C16.4472782,28.1785701 14.9964436,27.3522059 13.0619685,26.7822909 C14.9964436,26.212376 16.4472782,25.3765133 17.4145158,24.2746778 C18.3817533,23.1728423 18.8653649,21.7290795 18.8653649,19.943346 L18.8653649,12.7054627 C18.8653649,10.8817349 19.4225694,9.56145182 20.5369953,8.74457376 C21.6514212,7.92769571 23.8434594,9.13876297 25.8672887,7.5192628 C27.8911181,5.89976263 26.8187513,2.50403657 24.6056808,1.47819484 C22.3926103,0.452353104 18.28714,0.794296903 15.8690461,1.47819481 C13.4509522,2.16209272 11.6847188,3.27341015 10.5702929,4.81218045 C9.45586698,6.35095074 8.89866239,8.43110902 8.89866239,11.0527177 L8.89866239,17.3217505 C8.89866239,19.4494329 8.36248439,20.9691832 7.29011231,21.8810471 C6.21774023,22.792911 3.57888359,21.8810475 1.83365812,23.2488361" id="Path"></path>
        </g>
    </g>
</svg>